<svg xmlns="http://www.w3.org/2000/svg" width="740" height="450" viewBox="0 0 740 450" role="img" aria-label="About and tech stack">
<defs><linearGradient id="bg" x1="0" y1="0" x2="1" y2="1"><stop stop-color="#0A0F14"/><stop offset="1" stop-color="#071015"/></linearGradient><linearGradient id="card" x1="0" x2="1"><stop stop-color="#0E151C"/><stop offset="1" stop-color="#0A1016"/></linearGradient></defs>
<style>.t{font-family:Segoe UI,Arial,sans-serif;fill:#F0F3F6}.m{font-family:Segoe UI,Arial,sans-serif;fill:#A6AFB8}.g{font-family:Segoe UI,Arial,sans-serif;fill:#F2C14E}.h{font-size:17px;font-weight:800}.b{font-size:12px}.s{font-size:10px}.k{font-size:12px;font-weight:700}.card{fill:url(#card);stroke:#26323C;stroke-width:1}.gold{fill:url(#card);stroke:#6E511A;stroke-width:1.2}</style>
<rect width="740" height="450" fill="url(#bg)"/><text x="1" y="24" class="g h">♟</text><text x="24" y="24" class="t h">About Me</text><line x1="0" y1="34" x2="740" y2="34" stroke="#202B34"/>
<text x="2" y="59" class="t b">Founder &amp; Infrastructure Engineer focused on networking, automation and AI-powered systems.</text><text x="2" y="79" class="t b">I build <tspan fill="#F2C14E" font-weight="700">VPNGOLD</tspan>, work with modern network technologies and create automation workflows.</text><text x="2" y="99" class="t b">I explore AI to make infrastructure smarter, more resilient and more accessible.</text>
<rect x="3" y="112" width="350" height="57" rx="6" fill="#0C1116" stroke="#5B4317"/><text x="16" y="137" class="g" font-size="11.5" font-style="italic">“Technology should give people more freedom, not less.”</text><text x="16" y="156" class="t s">— GoldenDan</text>
<rect x="520" y="44" width="216" height="125" rx="8" class="gold"/><text x="535" y="69" class="g k">Focus</text><text x="614" y="69" class="t k">Infrastructure &amp; AI</text><text x="535" y="96" class="g k">Currently</text><text x="614" y="96" class="t k">Building VPNGOLD</text><text x="535" y="123" class="g k">Learning</text><text x="614" y="123" class="t k">Always</text><text x="535" y="150" class="g k">Goal</text><text x="614" y="150" class="t k">More freedom online</text>
<g stroke="#F2C14E" fill="none" stroke-width="1.8"><circle cx="27" cy="211" r="15"/><ellipse cx="27" cy="211" rx="6" ry="15"/><path d="M12 211H42M15 204H39M15 218H39"/><rect x="199" y="197" width="31" height="9" rx="2"/><rect x="199" y="210" width="31" height="9" rx="2"/><rect x="199" y="223" width="31" height="9" rx="2"/><rect x="384" y="197" width="29" height="29" rx="4"/><path d="M390 190v7m8-7v7m8-7v7m-16 29v7m8-7v7m8-7v7m-29-29h7m-7 8h7m-7 8h7m29-16h7m-7 8h7m-7 8h7"/><circle cx="574" cy="207" r="10"/><circle cx="588" cy="201" r="10"/><circle cx="602" cy="211" r="10"/><circle cx="587" cy="220" r="11"/><path d="M574 207l14-6 14 10-15 9z"/></g>
<text x="53" y="203" class="t k">Networking</text><text x="53" y="220" class="m s">Xray, VLESS, REALITY</text><text x="53" y="235" class="m s">routing, anti-DPI</text><text x="240" y="203" class="t k">Infrastructure</text><text x="240" y="220" class="m s">Linux, Docker, Cloud</text><text x="240" y="235" class="m s">monitoring, recovery</text><text x="424" y="203" class="t k">Automation</text><text x="424" y="220" class="m s">Python, APIs, CI/CD</text><text x="424" y="235" class="m s">bots, operations</text><text x="616" y="203" class="t k">AI &amp; Data</text><text x="616" y="220" class="m s">LLMs, agents, analysis</text><text x="616" y="235" class="m s">orchestration, tooling</text>
<text x="1" y="276" class="g h">✥</text><text x="24" y="276" class="t h">Tech Stack</text><line x1="0" y1="287" x2="740" y2="287" stroke="#202B34"/>
<g font-family="Segoe UI,Arial,sans-serif" font-size="10.5" font-weight="650">
<g transform="translate(0 302)"><rect width="102" height="43" rx="6" class="card"/><circle cx="22" cy="21.5" r="12" fill="#FCC624" fill-opacity=".14" stroke="#FCC624"/><text x="22" y="25" text-anchor="middle" fill="#FCC624" font-size="8" font-weight="900">LX</text><text x="42" y="26" class="t">Linux</text></g><g transform="translate(106 302)"><rect width="112" height="43" rx="6" class="card"/><circle cx="22" cy="21.5" r="12" fill="#2496ED" fill-opacity=".14" stroke="#2496ED"/><text x="22" y="25" text-anchor="middle" fill="#2496ED" font-size="8" font-weight="900">DK</text><text x="42" y="26" class="t">Docker</text></g><g transform="translate(222 302)"><rect width="112" height="43" rx="6" class="card"/><circle cx="22" cy="21.5" r="12" fill="#00A35C" fill-opacity=".14" stroke="#00A35C"/><text x="22" y="25" text-anchor="middle" fill="#00A35C" font-size="8" font-weight="900">NG</text><text x="42" y="26" class="t">Nginx</text></g><g transform="translate(338 302)"><rect width="112" height="43" rx="6" class="card"/><circle cx="22" cy="21.5" r="12" fill="#D2A23C" fill-opacity=".14" stroke="#D2A23C"/><text x="22" y="25" text-anchor="middle" fill="#D2A23C" font-size="8" font-weight="900">XR</text><text x="42" y="26" class="t">Xray</text></g><g transform="translate(454 302)"><rect width="128" height="43" rx="6" class="card"/><circle cx="22" cy="21.5" r="12" fill="#C4383E" fill-opacity=".14" stroke="#C4383E"/><text x="22" y="25" text-anchor="middle" fill="#C4383E" font-size="8" font-weight="900">WG</text><text x="42" y="26" class="t">WireGuard</text></g><g transform="translate(586 302)"><rect width="154" height="43" rx="6" class="card"/><circle cx="22" cy="21.5" r="12" fill="#F38020" fill-opacity=".14" stroke="#F38020"/><text x="22" y="25" text-anchor="middle" fill="#F38020" font-size="8" font-weight="900">CF</text><text x="42" y="26" class="t">Cloudflare</text></g>
<g transform="translate(0 350)"><rect width="102" height="43" rx="6" class="card"/><circle cx="22" cy="21.5" r="12" fill="#3776AB" fill-opacity=".14" stroke="#3776AB"/><text x="22" y="25" text-anchor="middle" fill="#3776AB" font-size="8" font-weight="900">PY</text><text x="42" y="26" class="t">Python</text></g><g transform="translate(106 350)"><rect width="112" height="43" rx="6" class="card"/><circle cx="22" cy="21.5" r="12" fill="#009688" fill-opacity=".14" stroke="#009688"/><text x="22" y="25" text-anchor="middle" fill="#009688" font-size="8" font-weight="900">FA</text><text x="42" y="26" class="t">FastAPI</text></g><g transform="translate(222 350)"><rect width="128" height="43" rx="6" class="card"/><circle cx="22" cy="21.5" r="12" fill="#4C83A6" fill-opacity=".14" stroke="#4C83A6"/><text x="22" y="25" text-anchor="middle" fill="#4C83A6" font-size="8" font-weight="900">PG</text><text x="42" y="26" class="t">PostgreSQL</text></g><g transform="translate(354 350)"><rect width="112" height="43" rx="6" class="card"/><circle cx="22" cy="21.5" r="12" fill="#DC382D" fill-opacity=".14" stroke="#DC382D"/><text x="22" y="25" text-anchor="middle" fill="#DC382D" font-size="8" font-weight="900">RD</text><text x="42" y="26" class="t">Redis</text></g><g transform="translate(470 350)"><rect width="146" height="43" rx="6" class="card"/><circle cx="22" cy="21.5" r="12" fill="#2088FF" fill-opacity=".14" stroke="#2088FF"/><text x="22" y="25" text-anchor="middle" fill="#2088FF" font-size="8" font-weight="900">GA</text><text x="42" y="26" class="t">GitHub Actions</text></g><g transform="translate(620 350)"><rect width="120" height="43" rx="6" class="card"/><circle cx="22" cy="21.5" r="12" fill="#229ED9" fill-opacity=".14" stroke="#229ED9"/><text x="22" y="25" text-anchor="middle" fill="#229ED9" font-size="8" font-weight="900">TG</text><text x="42" y="26" class="t">Telegram</text></g>
<g transform="translate(0 398)"><rect width="112" height="43" rx="6" class="card"/><circle cx="22" cy="21.5" r="12" fill="#D5D9DD" fill-opacity=".12" stroke="#D5D9DD"/><text x="22" y="25" text-anchor="middle" fill="#D5D9DD" font-size="8" font-weight="900">OA</text><text x="42" y="26" class="t">OpenAI</text></g><g transform="translate(116 398)"><rect width="112" height="43" rx="6" class="card"/><circle cx="22" cy="21.5" r="12" fill="#D97757" fill-opacity=".14" stroke="#D97757"/><text x="22" y="25" text-anchor="middle" fill="#D97757" font-size="8" font-weight="900">CL</text><text x="42" y="26" class="t">Claude</text></g><g transform="translate(232 398)"><rect width="112" height="43" rx="6" class="card"/><circle cx="22" cy="21.5" r="12" fill="#8E75B2" fill-opacity=".14" stroke="#8E75B2"/><text x="22" y="25" text-anchor="middle" fill="#8E75B2" font-size="8" font-weight="900">GM</text><text x="42" y="26" class="t">Gemini</text></g><g transform="translate(348 398)"><rect width="112" height="43" rx="6" class="card"/><circle cx="22" cy="21.5" r="12" fill="#007ACC" fill-opacity=".14" stroke="#007ACC"/><text x="22" y="25" text-anchor="middle" fill="#007ACC" font-size="8" font-weight="900">VS</text><text x="42" y="26" class="t">VS Code</text></g><g transform="translate(464 398)"><rect width="112" height="43" rx="6" class="card"/><circle cx="22" cy="21.5" r="12" fill="#A259FF" fill-opacity=".14" stroke="#A259FF"/><text x="22" y="25" text-anchor="middle" fill="#A259FF" font-size="8" font-weight="900">FG</text><text x="42" y="26" class="t">Figma</text></g><g transform="translate(580 398)"><rect width="160" height="43" rx="6" class="card"/><circle cx="22" cy="21.5" r="12" fill="#E0E0E0" fill-opacity=".10" stroke="#E0E0E0"/><text x="22" y="25" text-anchor="middle" fill="#E0E0E0" font-size="8" font-weight="900">AI</text><text x="42" y="26" class="t">AI Agents</text></g></g></svg>