<svg xmlns="http://www.w3.org/2000/svg" width="743" height="104" viewBox="0 0 743 104" role="img" aria-label="Build a more open world"><defs><linearGradient id="sky" x1="0" y1="0" x2="0" y2="1"><stop stop-color="#2C1C08"/><stop offset=".42" stop-color="#81581B"/><stop offset=".62" stop-color="#302006"/><stop offset="1" stop-color="#060707"/></linearGradient><radialGradient id="sun" cx="50%" cy="62%" r="26%"><stop stop-color="#FFD86B" stop-opacity=".72"/><stop offset="1" stop-color="#000" stop-opacity="0"/></radialGradient></defs><rect width="743" height="104" fill="url(#sky)"/><rect width="743" height="104" fill="url(#sun)"/><path d="M0 82 L42 47 76 70 110 42 145 73 178 52 205 78 244 54 280 79 320 52 359 81 401 57 438 78 486 48 521 72 561 47 603 71 645 44 686 69 743 49 743 104 0 104Z" fill="#050606"/><path d="M0 90 L35 68 70 84 106 64 142 89 178 69 216 92 255 72 292 92 335 70 378 95 415 74 462 94 505 71 549 91 592 69 638 92 682 71 743 84 743 104 0 104Z" fill="#020303"/>
<text x="371.5" y="23" text-anchor="middle" fill="#F5D66B" font-family="Segoe UI,Arial,sans-serif" font-size="12" letter-spacing="5">BUILD A MORE OPEN WORLD</text>
<g transform="translate(371 69)"><path d="M-15 8 L-23 -5 L-9 2 L0 -16 L9 2 L23 -5 L15 8 Z" fill="none" stroke="#FFD66A" stroke-width="2.3"/><path d="M-15 9 Q0 15 15 9" fill="none" stroke="#FFD66A" stroke-width="2.2"/></g>
<text x="708" y="66" text-anchor="end" fill="#F3C65A" font-family="Brush Script MT,Segoe Script,cursive" font-size="24" font-style="italic">Golden Dan</text><text x="708" y="90" text-anchor="end" fill="#D6AA44" font-family="Segoe UI,Arial,sans-serif" font-size="7.5" letter-spacing="2.8">INFRASTRUCTURE  ·  IDEAS  ·  IMPACT</text><rect x=".7" y=".7" width="741.6" height="102.6" fill="none" stroke="#5A4218"/></svg>