<svg xmlns="http://www.w3.org/2000/svg" width="740" height="105" viewBox="0 0 740 105" role="img" aria-label="Build a more open world"><defs><linearGradient id="sky" x1="0" y1="0" x2="0" y2="1"><stop stop-color="#1C1103"/><stop offset=".55" stop-color="#7A4A0A"/><stop offset="1" stop-color="#090B0D"/></linearGradient><linearGradient id="gold" x1="0" x2="1"><stop stop-color="#8B5D14"/><stop offset=".5" stop-color="#FFE17A"/><stop offset="1" stop-color="#8B5D14"/></linearGradient><filter id="glow"><feGaussianBlur stdDeviation="3" result="b"/><feMerge><feMergeNode in="b"/><feMergeNode in="SourceGraphic"/></feMerge></filter></defs><rect width="740" height="105" fill="url(#sky)"/><path d="M0 91 L42 67 67 75 103 48 135 69 172 57 208 83 245 59 277 78 315 65 350 86 389 55 427 79 466 48 506 73 547 58 587 80 629 61 667 76 740 49 740 105 0 105Z" fill="#07090A" stroke="#8B5D14" stroke-opacity=".45"/><path d="M0 99 L64 80 122 91 185 72 246 97 310 80 370 95 432 76 497 93 558 78 624 95 690 80 740 94 740 105 0 105Z" fill="#040506"/><text x="370" y="27" text-anchor="middle" fill="#FFE17A" font-family="Segoe UI,Arial,sans-serif" font-size="12" font-weight="800" letter-spacing="5">BUILD A MORE OPEN WORLD</text><g transform="translate(370 70)" filter="url(#glow)" fill="none" stroke="url(#gold)" stroke-width="2.2"><path d="M-18 10L-28-8-10 1 0-22 10 1 28-8 18 10Z"/><path d="M-18 10Q0 20 18 10"/></g><text x="594" y="70" fill="#F3C451" font-family="Segoe Script,Bradley Hand,cursive" font-size="22" font-style="italic">GoldenDan</text><text x="571" y="90" fill="#C69635" font-family="Segoe UI,Arial,sans-serif" font-size="7" font-weight="700" letter-spacing="2.4">INFRASTRUCTURE · IDEAS · IMPACT</text></svg>