<svg xmlns="http://www.w3.org/2000/svg" width="740" height="165" viewBox="0 0 740 165"><defs><linearGradient id="bg" x2="1" y2="1"><stop stop-color="#081016"/><stop offset="1" stop-color="#071017"/></linearGradient><linearGradient id="c" x2="1"><stop stop-color="#0E151D"/><stop offset="1" stop-color="#0A1016"/></linearGradient></defs><style>.t{font-family:Segoe UI,Arial;fill:#F0F3F6}.m{font-family:Segoe UI,Arial;fill:#9EA8B2}.g{font-family:Segoe UI,Arial;fill:#F2C14E}.h{font-size:18px;font-weight:800}.b{font-size:12px}.s{font-size:9px}.k{font-size:10px;font-weight:700}.card{fill:url(#c);stroke:#29343F}.gold{fill:#0D1215;stroke:#74551B;stroke-width:1.2}</style><rect width="740" height="165" fill="url(#bg)"/><text x="18" y="31" class="g h">▧</text><text x="43" y="31" class="t h">Featured Projects</text><path d="M18 43H722" stroke="#26313B"/><rect x="18" y="58" width="226" height="94" rx="9" class="card"/><rect x="32" y="72" width="25" height="25" rx="6" fill="#F2C14E" fill-opacity=".15" stroke="#F2C14E"/><text x="67" y="86" class="t" font-size="11" font-weight="800">VPNGOLD</text><text x="67" y="102" class="g s">Product</text><text x="32" y="120" class="m s">Resilient VPN infrastructure</text><text x="32" y="135" class="m s">and tooling for a more open internet.</text><circle cx="35" cy="145" r="4" fill="#F2C14E"/><text x="45" y="148" class="t s">Infrastructure</text><rect x="257" y="58" width="226" height="94" rx="9" class="card"/><rect x="271" y="72" width="25" height="25" rx="6" fill="#2496ED" fill-opacity=".15" stroke="#2496ED"/><text x="306" y="86" class="t" font-size="11" font-weight="800">Monitoring_Bot</text><text x="306" y="102" class="g s">Shell</text><text x="271" y="120" class="m s">Infrastructure monitoring</text><text x="271" y="135" class="m s">and automation.</text><circle cx="274" cy="145" r="4" fill="#2496ED"/><text x="284" y="148" class="t s">Shell</text><rect x="496" y="58" width="226" height="94" rx="9" class="card"/><rect x="510" y="72" width="25" height="25" rx="6" fill="#3776AB" fill-opacity=".15" stroke="#3776AB"/><text x="545" y="86" class="t" font-size="11" font-weight="800">simpleanalysis</text><text x="545" y="102" class="g s">Python</text><text x="510" y="120" class="m s">Data analysis tools</text><text x="510" y="135" class="m s">and experiments.</text><circle cx="513" cy="145" r="4" fill="#3776AB"/><text x="523" y="148" class="t s">Python</text></svg>