<svg xmlns="http://www.w3.org/2000/svg" width="740" height="355" viewBox="0 0 740 355" role="img" aria-label="GitHub stats"><defs><linearGradient id="bg" x1="0" y1="0" x2="1" y2="1"><stop stop-color="#081015"/><stop offset="1" stop-color="#071017"/></linearGradient><linearGradient id="card" x1="0" x2="1"><stop stop-color="#0E151C"/><stop offset="1" stop-color="#0A1016"/></linearGradient><pattern id="cells" width="13.3" height="12" patternUnits="userSpaceOnUse"><rect width="9" height="9" rx="2" fill="#151B22"/></pattern></defs><style>.t{font-family:Segoe UI,Arial,sans-serif;fill:#F0F3F6}.m{font-family:Segoe UI,Arial,sans-serif;fill:#A6AFB8}.g{font-family:Segoe UI,Arial,sans-serif;fill:#F2C14E}.h{font-size:17px;font-weight:800}.k{font-size:11px;font-weight:700}.s{font-size:9px}.card{fill:url(#card);stroke:#72541A;stroke-width:1.1}</style><rect width="740" height="355" fill="url(#bg)"/><text x="1" y="24" class="g h">◎</text><text x="24" y="24" class="t h">GitHub Stats</text><line x1="0" y1="34" x2="740" y2="34" stroke="#202B34"/><rect x="0" y="50" width="208" height="118" rx="7" class="card"/><text x="16" y="74" class="g k">Total Stats</text><text x="16" y="105" class="g" font-size="12">◉</text><text x="36" y="106" class="t" font-size="19" font-weight="800">1.5K+</text><text x="36" y="121" class="m s">Contributions</text><text x="116" y="105" class="g" font-size="12">▣</text><text x="136" y="106" class="t" font-size="19" font-weight="800">4</text><text x="136" y="121" class="m s">Public repos</text><text x="16" y="147" class="g" font-size="12">★</text><text x="36" y="148" class="t" font-size="19" font-weight="800">4</text><text x="36" y="162" class="m s">Repo stars</text><text x="116" y="147" class="g" font-size="12">♟</text><text x="136" y="148" class="t" font-size="19" font-weight="800">2</text><text x="136" y="162" class="m s">Followers</text><rect x="220" y="50" width="278" height="118" rx="7" class="card"/><text x="236" y="74" class="g k">Language Mix</text><rect x="236" y="91" width="11" height="11" rx="3" fill="#F2C14E"/><text x="258" y="100" class="t" font-size="10">Python</text><text x="349" y="100" class="m s">34%</text><rect x="236" y="116" width="11" height="11" rx="3" fill="#EBD77B"/><text x="258" y="125" class="t" font-size="10">JavaScript</text><text x="349" y="125" class="m s">33%</text><rect x="236" y="141" width="11" height="11" rx="3" fill="#B58A2A"/><text x="258" y="150" class="t" font-size="10">Shell</text><text x="349" y="150" class="m s">33%</text><g transform="translate(430 111) rotate(-90)"><circle r="35" fill="none" stroke="#3B444D" stroke-width="14"/><circle r="35" fill="none" stroke="#F2C14E" stroke-width="14" stroke-dasharray="75 220"/><circle r="35" fill="none" stroke="#D8D4C5" stroke-width="14" stroke-dasharray="74 220" stroke-dashoffset="-75"/></g><path d="M416 118l10-15 9 12 8-18 9 21" fill="none" stroke="#F2C14E" stroke-width="2"/><rect x="510" y="50" width="230" height="118" rx="7" class="card"/><text x="526" y="74" class="g k">Streak</text><text x="526" y="106" class="g" font-size="20">🔥</text><text x="556" y="106" class="t" font-size="24" font-weight="800">4</text><text x="556" y="122" class="m s">Days in a row</text><g fill="#A87724"><rect x="530" y="139" width="10" height="3"/><rect x="546" y="137" width="10" height="5"/><rect x="562" y="135" width="10" height="7"/><rect x="578" y="132" width="10" height="10"/><rect x="594" y="130" width="10" height="12"/><rect x="610" y="127" width="10" height="15"/><rect x="626" y="133" width="10" height="9"/><rect x="642" y="125" width="10" height="17"/><rect x="658" y="120" width="10" height="22"/><rect x="674" y="114" width="10" height="28"/><rect x="690" y="106" width="10" height="36"/></g><text x="526" y="159" class="m s">Keep going! 🔥</text><text x="1" y="201" class="g h">♘</text><text x="24" y="201" class="t h">Contribution Graph</text><line x1="0" y1="211" x2="740" y2="211" stroke="#202B34"/><g class="m s"><text x="42" y="218">Jan</text><text x="101" y="218">Feb</text><text x="158" y="218">Mar</text><text x="216" y="218">Apr</text><text x="273" y="218">May</text><text x="330" y="218">Jun</text><text x="390" y="218">Jul</text><text x="448" y="218">Aug</text><text x="507" y="218">Sep</text><text x="565" y="218">Oct</text><text x="623" y="218">Nov</text><text x="682" y="218">Dec</text><text x="0" y="239">Mon</text><text x="0" y="263">Wed</text><text x="0" y="287">Fri</text></g><rect x="27" y="225" width="691.6" height="84" fill="url(#cells)"/><rect x="53.6" y="237" width="9" height="9" rx="2" fill="#F2C14E"/><rect x="53.6" y="273" width="9" height="9" rx="2" fill="#7A551C"/><rect x="106.8" y="225" width="9" height="9" rx="2" fill="#7A551C"/><rect x="106.8" y="261" width="9" height="9" rx="2" fill="#F2C14E"/><rect x="106.8" y="297" width="9" height="9" rx="2" fill="#7A551C"/><rect x="146.7" y="225" width="9" height="9" rx="2" fill="#B57C20"/><rect x="146.7" y="261" width="9" height="9" rx="2" fill="#7A551C"/><rect x="146.7" y="297" width="9" height="9" rx="2" fill="#B57C20"/><rect x="199.9" y="249" width="9" height="9" rx="2" fill="#B57C20"/><rect x="199.9" y="285" width="9" height="9" rx="2" fill="#7A551C"/><rect x="213.2" y="225" width="9" height="9" rx="2" fill="#F2C14E"/><rect x="213.2" y="237" width="9" height="9" rx="2" fill="#B57C20"/><rect x="213.2" y="249" width="9" height="9" rx="2" fill="#7A551C"/><rect x="213.2" y="273" width="9" height="9" rx="2" fill="#7A551C"/><rect x="213.2" y="297" width="9" height="9" rx="2" fill="#7A551C"/><rect x="226.5" y="225" width="9" height="9" rx="2" fill="#B57C20"/><rect x="226.5" y="237" width="9" height="9" rx="2" fill="#7A551C"/><rect x="226.5" y="261" width="9" height="9" rx="2" fill="#7A551C"/><rect x="226.5" y="285" width="9" height="9" rx="2" fill="#7A551C"/><rect x="226.5" y="297" width="9" height="9" rx="2" fill="#B57C20"/><rect x="253.1" y="237" width="9" height="9" rx="2" fill="#7A551C"/><rect x="253.1" y="273" width="9" height="9" rx="2" fill="#B57C20"/><rect x="266.4" y="225" width="9" height="9" rx="2" fill="#7A551C"/><rect x="266.4" y="261" width="9" height="9" rx="2" fill="#B57C20"/><rect x="266.4" y="297" width="9" height="9" rx="2" fill="#7A551C"/><rect x="306.3" y="225" width="9" height="9" rx="2" fill="#F2C14E"/><rect x="306.3" y="261" width="9" height="9" rx="2" fill="#7A551C"/><rect x="306.3" y="297" width="9" height="9" rx="2" fill="#B57C20"/><rect x="346.2" y="225" width="9" height="9" rx="2" fill="#7A551C"/><rect x="346.2" y="261" width="9" height="9" rx="2" fill="#B57C20"/><rect x="346.2" y="297" width="9" height="9" rx="2" fill="#7A551C"/><rect x="359.5" y="237" width="9" height="9" rx="2" fill="#7A551C"/><rect x="359.5" y="249" width="9" height="9" rx="2" fill="#F2C14E"/><rect x="359.5" y="261" width="9" height="9" rx="2" fill="#7A551C"/><rect x="359.5" y="285" width="9" height="9" rx="2" fill="#7A551C"/><rect x="386.1" y="225" width="9" height="9" rx="2" fill="#B57C20"/><rect x="386.1" y="261" width="9" height="9" rx="2" fill="#F2C14E"/><rect x="386.1" y="297" width="9" height="9" rx="2" fill="#B57C20"/><rect x="412.7" y="237" width="9" height="9" rx="2" fill="#7A551C"/><rect x="412.7" y="273" width="9" height="9" rx="2" fill="#F2C14E"/><rect x="465.9" y="225" width="9" height="9" rx="2" fill="#B57C20"/><rect x="465.9" y="261" width="9" height="9" rx="2" fill="#7A551C"/><rect x="465.9" y="297" width="9" height="9" rx="2" fill="#F2C14E"/><rect x="492.5" y="237" width="9" height="9" rx="2" fill="#7A551C"/><rect x="492.5" y="273" width="9" height="9" rx="2" fill="#B57C20"/><rect x="519.1" y="249" width="9" height="9" rx="2" fill="#B57C20"/><rect x="519.1" y="285" width="9" height="9" rx="2" fill="#7A551C"/><rect x="559.0" y="249" width="9" height="9" rx="2" fill="#7A551C"/><rect x="559.0" y="285" width="9" height="9" rx="2" fill="#B57C20"/><rect x="572.3" y="237" width="9" height="9" rx="2" fill="#7A551C"/><rect x="572.3" y="261" width="9" height="9" rx="2" fill="#F2C14E"/><rect x="572.3" y="273" width="9" height="9" rx="2" fill="#B57C20"/><rect x="572.3" y="285" width="9" height="9" rx="2" fill="#7A551C"/><rect x="598.9" y="249" width="9" height="9" rx="2" fill="#B57C20"/><rect x="598.9" y="285" width="9" height="9" rx="2" fill="#7A551C"/><rect x="612.2" y="225" width="9" height="9" rx="2" fill="#7A551C"/><rect x="612.2" y="237" width="9" height="9" rx="2" fill="#F2C14E"/><rect x="612.2" y="249" width="9" height="9" rx="2" fill="#7A551C"/><rect x="612.2" y="273" width="9" height="9" rx="2" fill="#7A551C"/><rect x="612.2" y="297" width="9" height="9" rx="2" fill="#7A551C"/><rect x="638.8" y="249" width="9" height="9" rx="2" fill="#F2C14E"/><rect x="638.8" y="285" width="9" height="9" rx="2" fill="#B57C20"/><rect x="665.4" y="225" width="9" height="9" rx="2" fill="#7A551C"/><rect x="665.4" y="261" width="9" height="9" rx="2" fill="#F2C14E"/><rect x="665.4" y="297" width="9" height="9" rx="2" fill="#7A551C"/><rect x="692.0" y="237" width="9" height="9" rx="2" fill="#B57C20"/><rect x="692.0" y="273" width="9" height="9" rx="2" fill="#F2C14E"/><rect x="27.0" y="225" width="9" height="9" rx="2" fill="#B57C20"/><rect x="93.5" y="285" width="9" height="9" rx="2" fill="#B57C20"/><rect x="133.4" y="237" width="9" height="9" rx="2" fill="#B57C20"/><rect x="173.3" y="273" width="9" height="9" rx="2" fill="#B57C20"/><rect x="293.0" y="225" width="9" height="9" rx="2" fill="#B57C20"/><rect x="319.6" y="297" width="9" height="9" rx="2" fill="#B57C20"/><rect x="439.3" y="261" width="9" height="9" rx="2" fill="#B57C20"/><rect x="479.2" y="285" width="9" height="9" rx="2" fill="#B57C20"/><rect x="532.4" y="237" width="9" height="9" rx="2" fill="#B57C20"/><rect x="652.1" y="249" width="9" height="9" rx="2" fill="#B57C20"/><rect x="705.3" y="273" width="9" height="9" rx="2" fill="#B57C20"/><text x="2" y="334" class="g" font-size="13">♕</text><text x="24" y="334" class="m" font-size="10.5">Consistency builds freedom.</text><text x="614" y="334" class="m s">Less</text><rect x="642" y="324" width="12" height="12" rx="3" fill="#4A3516"/><rect x="658" y="324" width="12" height="12" rx="3" fill="#7A551C"/><rect x="674" y="324" width="12" height="12" rx="3" fill="#B57C20"/><rect x="690" y="324" width="12" height="12" rx="3" fill="#F2C14E"/><text x="706" y="334" class="m s">More</text></svg>