<svg xmlns="http://www.w3.org/2000/svg" width="740" height="255" viewBox="0 0 740 255"><defs><linearGradient id="bg" x2="1" y2="1"><stop stop-color="#081016"/><stop offset="1" stop-color="#071017"/></linearGradient><linearGradient id="c" x2="1"><stop stop-color="#0E151D"/><stop offset="1" stop-color="#0A1016"/></linearGradient></defs><style>.t{font-family:Segoe UI,Arial;fill:#F0F3F6}.m{font-family:Segoe UI,Arial;fill:#9EA8B2}.g{font-family:Segoe UI,Arial;fill:#F2C14E}.h{font-size:18px;font-weight:800}.b{font-size:12px}.s{font-size:9px}.k{font-size:10px;font-weight:700}.card{fill:url(#c);stroke:#29343F}.gold{fill:#0D1215;stroke:#74551B;stroke-width:1.2}</style><rect width="740" height="255" fill="url(#bg)"/><text x="18" y="31" class="g h">✥</text><text x="43" y="31" class="t h">Tech Stack</text><path d="M18 43H722" stroke="#26313B"/><rect x="18" y="60" width="110" height="53" rx="8" class="card"/><circle cx="40" cy="86.5" r="14" fill="#FCC624" fill-opacity=".14" stroke="#FCC624"/><text x="40" y="90" text-anchor="middle" fill="#FCC624" font-family="Segoe UI,Arial" font-size="8" font-weight="900">LX</text><text x="60" y="90" class="t" font-size="9" font-weight="700">Linux</text><rect x="137" y="60" width="110" height="53" rx="8" class="card"/><circle cx="159" cy="86.5" r="14" fill="#2496ED" fill-opacity=".14" stroke="#2496ED"/><text x="159" y="90" text-anchor="middle" fill="#2496ED" font-family="Segoe UI,Arial" font-size="8" font-weight="900">DK</text><text x="179" y="90" class="t" font-size="9" font-weight="700">Docker</text><rect x="256" y="60" width="110" height="53" rx="8" class="card"/><circle cx="278" cy="86.5" r="14" fill="#00A35C" fill-opacity=".14" stroke="#00A35C"/><text x="278" y="90" text-anchor="middle" fill="#00A35C" font-family="Segoe UI,Arial" font-size="8" font-weight="900">NG</text><text x="298" y="90" class="t" font-size="9" font-weight="700">Nginx</text><rect x="375" y="60" width="110" height="53" rx="8" class="card"/><circle cx="397" cy="86.5" r="14" fill="#D2A23C" fill-opacity=".14" stroke="#D2A23C"/><text x="397" y="90" text-anchor="middle" fill="#D2A23C" font-family="Segoe UI,Arial" font-size="8" font-weight="900">XR</text><text x="417" y="90" class="t" font-size="9" font-weight="700">Xray</text><rect x="494" y="60" width="110" height="53" rx="8" class="card"/><circle cx="516" cy="86.5" r="14" fill="#C4383E" fill-opacity=".14" stroke="#C4383E"/><text x="516" y="90" text-anchor="middle" fill="#C4383E" font-family="Segoe UI,Arial" font-size="8" font-weight="900">WG</text><text x="536" y="90" class="t" font-size="9" font-weight="700">WireGuard</text><rect x="613" y="60" width="110" height="53" rx="8" class="card"/><circle cx="635" cy="86.5" r="14" fill="#F38020" fill-opacity=".14" stroke="#F38020"/><text x="635" y="90" text-anchor="middle" fill="#F38020" font-family="Segoe UI,Arial" font-size="8" font-weight="900">CF</text><text x="655" y="90" class="t" font-size="9" font-weight="700">Cloudflare</text><rect x="18" y="122" width="110" height="53" rx="8" class="card"/><circle cx="40" cy="148.5" r="14" fill="#3776AB" fill-opacity=".14" stroke="#3776AB"/><text x="40" y="152" text-anchor="middle" fill="#3776AB" font-family="Segoe UI,Arial" font-size="8" font-weight="900">PY</text><text x="60" y="152" class="t" font-size="9" font-weight="700">Python</text><rect x="137" y="122" width="110" height="53" rx="8" class="card"/><circle cx="159" cy="148.5" r="14" fill="#009688" fill-opacity=".14" stroke="#009688"/><text x="159" y="152" text-anchor="middle" fill="#009688" font-family="Segoe UI,Arial" font-size="8" font-weight="900">FA</text><text x="179" y="152" class="t" font-size="9" font-weight="700">FastAPI</text><rect x="256" y="122" width="110" height="53" rx="8" class="card"/><circle cx="278" cy="148.5" r="14" fill="#4C83A6" fill-opacity=".14" stroke="#4C83A6"/><text x="278" y="152" text-anchor="middle" fill="#4C83A6" font-family="Segoe UI,Arial" font-size="8" font-weight="900">PG</text><text x="298" y="152" class="t" font-size="9" font-weight="700">PostgreSQL</text><rect x="375" y="122" width="110" height="53" rx="8" class="card"/><circle cx="397" cy="148.5" r="14" fill="#DC382D" fill-opacity=".14" stroke="#DC382D"/><text x="397" y="152" text-anchor="middle" fill="#DC382D" font-family="Segoe UI,Arial" font-size="8" font-weight="900">RD</text><text x="417" y="152" class="t" font-size="9" font-weight="700">Redis</text><rect x="494" y="122" width="110" height="53" rx="8" class="card"/><circle cx="516" cy="148.5" r="14" fill="#2088FF" fill-opacity=".14" stroke="#2088FF"/><text x="516" y="152" text-anchor="middle" fill="#2088FF" font-family="Segoe UI,Arial" font-size="8" font-weight="900">GA</text><text x="536" y="152" class="t" font-size="8.1" font-weight="700">GitHub Actions</text><rect x="613" y="122" width="110" height="53" rx="8" class="card"/><circle cx="635" cy="148.5" r="14" fill="#229ED9" fill-opacity=".14" stroke="#229ED9"/><text x="635" y="152" text-anchor="middle" fill="#229ED9" font-family="Segoe UI,Arial" font-size="8" font-weight="900">TG</text><text x="655" y="152" class="t" font-size="9" font-weight="700">Telegram</text><rect x="18" y="184" width="110" height="53" rx="8" class="card"/><circle cx="40" cy="210.5" r="14" fill="#D5D9DD" fill-opacity=".14" stroke="#D5D9DD"/><text x="40" y="214" text-anchor="middle" fill="#D5D9DD" font-family="Segoe UI,Arial" font-size="8" font-weight="900">OA</text><text x="60" y="214" class="t" font-size="9" font-weight="700">OpenAI</text><rect x="137" y="184" width="110" height="53" rx="8" class="card"/><circle cx="159" cy="210.5" r="14" fill="#D97757" fill-opacity=".14" stroke="#D97757"/><text x="159" y="214" text-anchor="middle" fill="#D97757" font-family="Segoe UI,Arial" font-size="8" font-weight="900">CL</text><text x="179" y="214" class="t" font-size="9" font-weight="700">Claude</text><rect x="256" y="184" width="110" height="53" rx="8" class="card"/><circle cx="278" cy="210.5" r="14" fill="#8E75B2" fill-opacity=".14" stroke="#8E75B2"/><text x="278" y="214" text-anchor="middle" fill="#8E75B2" font-family="Segoe UI,Arial" font-size="8" font-weight="900">GM</text><text x="298" y="214" class="t" font-size="9" font-weight="700">Gemini</text><rect x="375" y="184" width="110" height="53" rx="8" class="card"/><circle cx="397" cy="210.5" r="14" fill="#007ACC" fill-opacity=".14" stroke="#007ACC"/><text x="397" y="214" text-anchor="middle" fill="#007ACC" font-family="Segoe UI,Arial" font-size="8" font-weight="900">VS</text><text x="417" y="214" class="t" font-size="9" font-weight="700">VS Code</text><rect x="494" y="184" width="110" height="53" rx="8" class="card"/><circle cx="516" cy="210.5" r="14" fill="#A259FF" fill-opacity=".14" stroke="#A259FF"/><text x="516" y="214" text-anchor="middle" fill="#A259FF" font-family="Segoe UI,Arial" font-size="8" font-weight="900">FG</text><text x="536" y="214" class="t" font-size="9" font-weight="700">Figma</text><rect x="613" y="184" width="110" height="53" rx="8" class="card"/><circle cx="635" cy="210.5" r="14" fill="#C89B34" fill-opacity=".14" stroke="#C89B34"/><text x="635" y="214" text-anchor="middle" fill="#C89B34" font-family="Segoe UI,Arial" font-size="8" font-weight="900">AI</text><text x="655" y="214" class="t" font-size="9" font-weight="700">AI Agents</text></svg>